<mxfile host="app.diagrams.net" modified="2024-04-28T09:31:57.612Z" agent="Mozilla/5.0 (Macintosh; Intel Mac OS X 10_15_7) AppleWebKit/537.36 (KHTML, like Gecko) Chrome/123.0.0.0 Safari/537.36" version="24.3.1" etag="jGXW1Q9OUufLciL7P4ah" type="github">
  <diagram name="第 1 页" id="GPHWKKmbUtgrAlZTikxV">
    <mxGraphModel>
      <root>
        <mxCell id="0" />
        <mxCell id="1" parent="0" />
      </root>
    </mxGraphModel>
  </diagram>
</mxfile>
